<svg width="277" height="80" viewBox="0 0 277 80" fill="none" xmlns="http://www.w3.org/2000/svg"><path d="M181.414 4.91567C182.02 10.7898 180.054 16.8513 176.025 21.5515C175.961 21.6287 175.939 21.7302 175.968 21.8246C178.085 28.5453 175.386 36.4299 169.405 40.9971L167.164 43.1449C167.103 43.2035 167.071 43.285 167.075 43.3694C167.417 49.1849 164.247 54.9146 158.997 57.9647L155.717 59.8694C155.65 59.9094 155.6 59.9752 155.581 60.051C155.562 60.1253 155.575 60.2054 155.616 60.2712L155.623 60.2826L155.757 60.4942H155.751L166.218 77.8836C166.319 78.0509 166.373 78.2454 166.373 78.4413C166.373 79.0204 165.916 79.498 165.354 79.5066L160.141 79.5138C159.586 79.5138 159.078 79.2249 158.785 78.7416L156.992 75.7616C156.988 75.7545 156.983 75.7459 156.98 75.7373L152.512 68.3274C152.449 68.223 152.33 68.173 152.211 68.1987C147.469 69.2998 142.631 69.8589 137.834 69.8589C132.923 69.8589 127.982 69.2769 123.144 68.1272C123.032 68.1015 122.901 68.1572 122.84 68.2588L116.65 78.7387C116.353 79.2235 115.847 79.5123 115.293 79.5123H115.233L109.977 79.5052C109.413 79.498 108.956 79.019 108.956 78.4399C108.956 78.244 109.01 78.0509 109.109 77.8836L111.853 73.335C111.859 73.325 111.865 73.3164 111.872 73.3093L119.528 60.4928H119.508L119.647 60.2712C119.69 60.2054 119.703 60.1239 119.684 60.0495C119.665 59.9723 119.615 59.9065 119.547 59.8679L116.267 57.9633C111.018 54.9118 107.847 49.1835 108.191 43.368C108.195 43.2836 108.163 43.2021 108.102 43.1435L105.861 40.9957C99.8795 36.4299 97.1805 28.5453 99.2975 21.8232C99.3266 21.7288 99.3062 21.6258 99.2408 21.5501C95.2118 16.8499 93.2475 10.7884 93.8528 4.91424C94.0172 3.82321 94.4872 1.86563 95.7938 1.01196C95.9684 0.909007 96.1299 0.824642 96.2856 0.756005C96.6406 0.598712 97.0146 0.522926 97.3987 0.538655C97.4525 0.541515 97.502 0.567254 97.5326 0.611582C99.8431 3.87754 104.3 8.9395 112.416 14.5191C116.531 17.3489 119.72 19.255 122.386 20.8208C122.4 20.8279 123.106 21.2426 123.106 21.2426C123.874 21.6931 124.571 22.102 125.227 22.4967C126.402 23.2574 127.441 24.0353 128.367 24.8032C130.551 26.6792 135.158 31.3608 135.843 37.9743C135.843 37.9743 136.629 43.2307 133.153 50.1816L126.886 61.4552C126.838 61.5367 126.831 61.6382 126.869 61.7254C126.907 61.8126 126.984 61.8755 127.075 61.8927C130.65 62.5605 134.27 62.8979 137.834 62.8979C141.276 62.8979 144.777 62.5819 148.237 61.9585C148.329 61.9413 148.407 61.8798 148.445 61.7912C148.483 61.704 148.477 61.6024 148.428 61.5209L148.087 60.9103L148.083 60.9032L146.13 57.3999H146.133L142.04 50.0472C138.641 43.1649 139.415 37.9757 139.415 37.9757C140.083 31.5353 144.469 26.928 146.715 24.9576C147.686 24.1397 148.789 23.3089 150.04 22.4981C150.643 22.134 151.281 21.7602 151.977 21.3524L152.882 20.8222C155.547 19.2565 158.737 17.3489 162.851 14.5205C170.967 8.94093 175.424 3.87754 177.735 0.613012C177.765 0.568684 177.815 0.541515 177.869 0.540085C178.253 0.525786 178.627 0.600142 178.982 0.757435C179.137 0.826071 179.299 0.910437 179.473 1.01339C180.78 1.86706 181.25 3.82464 181.414 4.91567Z" fill="white"/><path d="M81.0238 51.287C85.53 51.5329 91.126 51.8389 95.8127 53.4262C103.776 56.1244 105.537 61.3451 105.612 65.2474C105.684 68.9095 104.336 72.1197 101.719 74.5334C96.5969 79.2536 88.379 79.5296 86.7843 79.5367C86.486 79.5539 85.8327 79.5811 84.8985 79.5811C81.309 79.5811 72.1249 79.1349 64.3653 75.0024L62.8812 74.1444C62.4112 73.877 62.1173 73.3809 62.1173 72.8504C62.1173 72.6115 62.1784 72.377 62.3006 72.1525L64.1747 68.6878C64.441 68.2002 64.956 67.8971 65.5191 67.8971C65.7796 67.8971 66.0386 67.9643 66.2685 68.0901L68.1745 69.1211C76.0623 73.3092 86.2011 72.7278 86.405 72.7161L86.4074 72.7159C86.5034 72.7088 86.6097 72.7031 86.7231 72.7074C88.5143 72.7074 93.7582 72.1711 96.4005 69.7188C97.6067 68.5992 98.1509 67.2164 98.116 65.3661C98.0126 60.0282 92.1315 58.7326 80.583 58.102L80.5262 58.0992L80.441 58.0945C79.2813 58.0305 78.2082 57.9714 77.2102 57.8933C64.649 56.9109 62.8084 50.0873 62.8302 46.1078C62.8477 42.8075 64.5152 34.9915 79.5834 33.7031C82.7189 33.4343 85.9549 33.6044 89.201 34.2093C89.5546 34.2765 89.8311 34.3308 90.0246 34.3723L91.6367 34.7527C92.3206 34.9185 92.7979 35.5162 92.7979 36.2069C92.7979 36.3327 92.7818 36.4529 92.7498 36.5787L91.8215 40.3523C91.6382 41.0058 91.0329 41.459 90.3476 41.459C90.2385 41.459 90.1293 41.4462 90.0115 41.4204L88.2087 41.0201C88.0235 40.979 87.7972 40.9319 87.6221 40.8955L87.6196 40.895L87.4856 40.8671C85.0426 40.4266 82.62 40.3051 80.2847 40.5039C75.7537 40.8914 70.3498 42.184 70.328 46.1435C70.3192 47.6664 70.3061 50.5005 77.8519 51.0911C78.7904 51.164 79.8758 51.2241 81.0238 51.287Z" fill="white"/><path fill-rule="evenodd" clip-rule="evenodd" d="M228.918 77.9264L203.489 35.6835C202.917 34.6968 201.658 34.0591 200.28 34.0591C198.955 34.0591 197.724 34.6839 197.066 35.6935L174.569 73.3535C174.561 73.3607 174.555 73.3693 174.55 73.3793L171.806 77.9279C171.707 78.0952 171.654 78.2882 171.654 78.4841C171.654 79.0632 172.111 79.5423 172.676 79.5508L177.931 79.558H177.991C178.545 79.558 179.052 79.2691 179.348 78.7844L185.538 68.3045C185.599 68.2029 185.73 68.1472 185.842 68.1729C190.679 69.3226 195.621 69.9045 200.532 69.9045C205.329 69.9045 210.167 69.3454 214.909 68.2444C215.028 68.2187 215.148 68.2687 215.21 68.3731L219.679 75.783C219.681 75.7916 219.686 75.8001 219.69 75.8073L221.483 78.7873C221.777 79.2706 222.284 79.5594 222.839 79.5594L228.052 79.5523C228.614 79.5437 229.071 79.0661 229.071 78.4856C229.072 78.2882 229.018 78.0966 228.918 77.9264ZM210.934 61.9999C207.474 62.6233 203.973 62.9394 200.53 62.9394C196.967 62.9394 193.347 62.6019 189.772 61.9341C189.68 61.917 189.603 61.854 189.565 61.7668C189.528 61.6796 189.533 61.5781 189.583 61.4966L200.043 43.9485C200.094 43.8641 200.186 43.8112 200.282 43.8098C200.381 43.8098 200.469 43.8612 200.522 43.947L211.124 61.5609C211.174 61.6424 211.181 61.7439 211.142 61.8312C211.104 61.9212 211.026 61.9842 210.934 61.9999Z" fill="white"/><path fill-rule="evenodd" clip-rule="evenodd" d="M57.8105 77.9265L32.3811 35.6849C31.8093 34.6983 30.5507 34.0605 29.1728 34.0605C27.8473 34.0605 26.6163 34.6854 25.9587 35.6949L3.46115 73.355C3.45387 73.3622 3.44805 73.3708 3.44223 73.3808L0.698065 77.928C0.599124 78.0953 0.545288 78.2883 0.545288 78.4842C0.545288 79.0633 1.00216 79.5423 1.56671 79.5509L6.82225 79.5581H6.8819C7.43627 79.5581 7.94261 79.2692 8.23944 78.7845L14.4291 68.3045C14.4902 68.203 14.6212 68.1472 14.7332 68.173C19.5697 69.3226 24.5124 69.9046 29.4231 69.9046C34.2203 69.9046 39.0582 69.3455 43.8001 68.2445C43.9195 68.2187 44.0388 68.2688 44.1013 68.3732L48.5697 75.7831C48.5711 75.7871 48.5728 75.7912 48.5747 75.7951C48.5767 75.7994 48.579 75.8036 48.5813 75.8074L50.3739 78.7874C50.6678 79.2707 51.1756 79.5595 51.73 79.5595L56.9433 79.5524C57.505 79.5438 57.9619 79.0662 57.9619 78.4856C57.9633 78.2883 57.9109 78.0967 57.8105 77.9265ZM39.825 62C36.365 62.6234 32.8642 62.9394 29.4216 62.9394C25.8583 62.9394 22.2382 62.602 18.6632 61.9342C18.5715 61.917 18.4944 61.8541 18.4566 61.7669C18.4188 61.6796 18.4246 61.5781 18.4741 61.4966L28.9342 43.9485C28.9851 43.8641 29.0768 43.8112 29.1728 43.8098C29.2718 43.8098 29.3605 43.8613 29.4129 43.9471L40.0156 61.561C40.0651 61.6425 40.0724 61.744 40.0331 61.8312C39.9953 61.9213 39.9181 61.9842 39.825 62Z" fill="white"/><path d="M266.255 53.4262C261.569 51.8389 255.973 51.5329 251.466 51.287C250.318 51.2241 249.233 51.164 248.294 51.0911C240.747 50.5005 240.762 47.6664 240.771 46.1435C240.792 42.184 246.196 40.8914 250.727 40.5039C253.063 40.3051 255.485 40.4266 257.927 40.8671C258.104 40.9042 258.413 40.9672 258.65 41.0201L260.453 41.4204C260.57 41.4462 260.68 41.459 260.789 41.459C261.474 41.459 262.079 41.0058 262.263 40.3523L263.191 36.5787C263.223 36.4529 263.239 36.3327 263.239 36.2069C263.239 35.5162 262.762 34.9185 262.078 34.7527L260.466 34.3723C260.272 34.3308 259.996 34.2765 259.642 34.2093C256.396 33.6044 253.16 33.4343 250.024 33.7031C234.956 34.9915 233.289 42.8075 233.271 46.1078C233.249 50.0873 235.09 56.9109 247.651 57.8933C248.654 57.9717 249.728 58.0309 250.893 58.0951L250.967 58.0992L251.024 58.102C262.573 58.7326 268.454 60.0282 268.557 65.3661C268.592 67.2164 268.048 68.5992 266.842 69.7188C264.199 72.1711 258.955 72.7074 257.164 72.7074C257.052 72.7031 256.945 72.7088 256.849 72.7159L256.846 72.7161C256.642 72.7278 246.503 73.3092 238.616 69.1211L236.71 68.0901C236.48 67.9643 236.221 67.8971 235.96 67.8971C235.397 67.8971 234.882 68.2002 234.616 68.6878L232.742 72.1525C232.619 72.377 232.558 72.6115 232.558 72.8504C232.558 73.3809 232.852 73.877 233.322 74.1444L234.806 75.0024C242.566 79.1349 251.75 79.5811 255.34 79.5811C256.274 79.5811 256.927 79.5539 257.225 79.5367C258.82 79.5296 267.038 79.2536 272.16 74.5334C274.777 72.1197 276.125 68.9095 276.053 65.2474C275.981 61.3451 274.219 56.1244 266.255 53.4262Z" fill="white"/></svg>