<?xml version="1.0" encoding="UTF-8"?>
<svg version="1.1" xmlns="http://www.w3.org/2000/svg" width="420" height="90">
<path d="M0 0 C2.5 1.6875 2.5 1.6875 4 3 C3.505 0.525 3.505 0.525 3 -2 C7.62 -2 12.24 -2 17 -2 C20.76239679 6.96335706 24.40904807 15.96709 28 25 C32.21735778 16.19206693 35.65430679 7.16329035 39 -2 C43.62 -2 48.24 -2 53 -2 C52.30691588 1.46542059 51.76311658 3.88744461 50.43359375 7.00830078 C49.95805054 8.13439255 49.95805054 8.13439255 49.47290039 9.28323364 C49.13121826 10.07921967 48.78953613 10.87520569 48.4375 11.6953125 C47.91047485 12.93920242 47.91047485 12.93920242 47.37280273 14.20822144 C46.25296675 16.84905606 45.12674549 19.48710696 44 22.125 C42.87450135 24.77054656 41.75033014 27.41665016 40.62719727 30.0632019 C39.92881655 31.70772354 39.22883816 33.35156781 38.52709961 34.99465942 C38.2100708 35.73908295 37.89304199 36.48350647 37.56640625 37.25048828 C37.28740479 37.90381134 37.00840332 38.5571344 36.72094727 39.23025513 C36.08327136 40.79558969 35.53450003 42.3964999 35 44 C30.38 44 25.76 44 21 44 C17.37 35.42 13.74 26.84 10 18 C9.67 20.31 9.34 22.62 9 25 C-1.23 25 -11.46 25 -22 25 C-19.75428361 30.87258655 -19.75428361 30.87258655 -16.5 32.4375 C-11.13013788 33.30051355 -4.87668702 33.44373056 0.0859375 30.953125 C2 30 2 30 6 30 C7.31626692 33.61973402 8 36.09567131 8 40 C6.75264433 40.6509259 5.50198168 41.29551669 4.25 41.9375 C3.55390625 42.29714844 2.8578125 42.65679687 2.140625 43.02734375 C-5.31239055 46.41384169 -14.73731709 46.15913193 -22.375 43.5 C-28.49527729 40.68905831 -32.35564589 36.14572091 -35.4375 30.25 C-36.88341053 21.8958503 -36.8837591 14.70629791 -32.62109375 7.1953125 C-24.68204422 -3.55588229 -11.65317298 -5.83973906 0 0 Z M5 5 C6 7 6 7 6 7 Z M-22 13 C-22.33 13.99 -22.66 14.98 -23 16 C-16.4 16 -9.8 16 -3 16 C-3.75264576 10.97448823 -3.75264576 10.97448823 -7 8 C-13.48544821 6.68092579 -17.99471111 7.4442767 -22 13 Z M8 12 C9 14 9 14 9 14 Z " fill="#E6E6E6" transform="translate(361,24)"/>
<path d="M0 0 C4.62 0 9.24 0 14 0 C14 21.45 14 42.9 14 65 C9.71 65 5.42 65 1 65 C0.505 63.02 0.505 63.02 0 61 C-0.763125 61.639375 -1.52625 62.27875 -2.3125 62.9375 C-7.16891321 66.66451479 -12.09429241 66.62994214 -18 66 C-23.37601679 64.31484312 -26.84529931 61.73205103 -30 57 C-30.33 59.64 -30.66 62.28 -31 65 C-36.28 65 -41.56 65 -47 65 C-47 60.05 -47 55.1 -47 50 C-42.38 50 -37.76 50 -33 50 C-33.226875 48.39125 -33.45375 46.7825 -33.6875 45.125 C-34.37867458 37.08880599 -32.86779206 30.87905416 -27.75 24.5625 C-23.38265013 20.03034448 -19.33635946 18.2595955 -13.0625 17.5625 C-9 18 -9 18 -1 22 C-0.67 14.74 -0.34 7.48 0 0 Z M-17 32 C-19.89919035 36.34878553 -20.38331671 40.13790193 -19.70703125 45.1875 C-19.10897288 47.96821582 -18.30635115 50.47239524 -16.875 52.9375 C-13.75956037 54.70291579 -10.52213342 55.123825 -7 55 C-3.37909244 53.42569236 -2.20744716 52.31117074 0 49 C0.35658489 45.96898838 0.35658489 45.96898838 0.3125 42.625 C0.32925781 41.50351562 0.34601563 40.38203125 0.36328125 39.2265625 C-0.03456195 35.6930304 -0.88623125 33.82864431 -3 31 C-7.68435269 28.65782365 -12.75109717 29.16739811 -17 32 Z M-32 53 C-31 55 -31 55 -31 55 Z " fill="#E8E8E8" transform="translate(310,3)"/>
<path d="M0 0 C0.495 0.99 0.495 0.99 1 2 C1.33 0.02 1.66 -1.96 2 -4 C5.3 -4 8.6 -4 12 -4 C12.07438636 3.1166762 12.12871455 10.23312396 12.16479492 17.35009766 C12.17984279 19.7690831 12.20028588 22.18804143 12.22631836 24.60693359 C12.262877 28.09219063 12.2797669 31.5770856 12.29296875 35.0625 C12.30845261 36.13677246 12.32393646 37.21104492 12.33988953 38.31787109 C12.3414654 45.41477849 11.87894545 51.60674602 7.09765625 57.2421875 C6.42605469 57.78101563 5.75445312 58.31984375 5.0625 58.875 C4.39347656 59.42929688 3.72445312 59.98359375 3.03515625 60.5546875 C-3.56377669 65.24106982 -11.18980928 65.69333368 -19.0625 64.375 C-24.45908811 63.12763453 -29.18606573 60.68351229 -34 58 C-33.47731534 55.23723823 -32.89130413 52.6739124 -32 50 C-28.84179417 50.49346966 -26.39225792 51.26655354 -23.4375 52.5625 C-17.38128442 54.91129844 -10.48906357 54.94660674 -4.25 53.25390625 C-1.87291642 52.18505487 -1.87291642 52.18505487 -0.85546875 49.9765625 C-0.52482422 48.81253906 -0.52482422 48.81253906 -0.1875 47.625 C0.04582031 46.85414062 0.27914062 46.08328125 0.51953125 45.2890625 C1.13694751 42.73737484 1.13694751 42.73737484 1 39 C0.278125 39.61875 -0.44375 40.2375 -1.1875 40.875 C-6.8360166 45.1427681 -12.04174623 45.94931183 -19 45 C-25.90627795 42.91087627 -30.25725604 39.54400308 -33.87890625 33.31640625 C-37.59240316 25.64357116 -37.82325222 17.95943011 -35.31640625 9.765625 C-32.64807473 3.64625138 -27.97644964 -1.25895989 -21.83203125 -3.94921875 C-14.44717841 -6.0012929 -6.12343755 -4.74072585 0 0 Z M-23.75 9.9375 C-26.73045583 14.85525212 -26.80508332 20.67903132 -25.46875 26.19140625 C-24.05194786 30.37251257 -22.89319872 32.65161145 -19 35 C-14.34690594 36.21318294 -10.21482834 36.38244596 -5.625 34.9375 C-2.22483962 32.42785781 -0.75109674 30.90629272 1 27 C1.74760149 20.39758683 2.20207675 13.50616954 -2 8 C-5.80862181 4.53761654 -9.70140931 4.54986033 -14.62890625 4.7109375 C-18.79034509 5.21826283 -21.00532004 6.89874719 -23.75 9.9375 Z " fill="#E6E6E6" transform="translate(148,23)"/>
<path d="M0 0 C5.56704557 5.88516246 7.53924949 11.96471494 7.375 19.9375 C7.36629883 20.64044189 7.35759766 21.34338379 7.34863281 22.06762695 C7.13261789 29.69808857 5.43331084 35.41145171 0 41 C-6.43144088 45.82358066 -12.05889491 46.90212853 -20 46 C-23.22034549 44.84424795 -26.54706715 43.45293285 -29 41 C-29.33 48.26 -29.66 55.52 -30 63 C-33.63 63 -37.26 63 -41 63 C-41 40.56 -41 18.12 -41 -5 C-37.7 -5 -34.4 -5 -31 -5 C-30.67 -3.35 -30.34 -1.7 -30 0 C-29.49210937 -0.34933594 -28.98421875 -0.69867188 -28.4609375 -1.05859375 C-19.04057857 -7.28590967 -9.03007223 -7.52506019 0 0 Z M-27 7 C-29.67792931 11.46973116 -30.40913607 14.81131664 -30.375 20 C-30.38273437 21.175625 -30.39046875 22.35125 -30.3984375 23.5625 C-29.87959677 28.03877296 -28.36836253 31.34656194 -25.5 34.8125 C-21.89558195 37.66599762 -17.37414689 37.48791854 -13 37 C-9.23782785 35.24431966 -5.82201139 33.05083454 -4.234375 29.08984375 C-2.5983716 21.82018346 -2.32332342 15.2377203 -5.8125 8.5 C-8.47162195 5.46100348 -10.3801751 4.20280735 -14.40234375 3.69921875 C-21.25253491 3.59512147 -21.25253491 3.59512147 -27 7 Z " fill="#DDDDDD" transform="translate(55,24)"/>
<path d="M0 0 C4.98108998 4.21978802 7.59171808 9.09350492 8.7890625 15.515625 C8.7890625 18.815625 8.7890625 22.115625 8.7890625 25.515625 C-2.7609375 25.515625 -14.3109375 25.515625 -26.2109375 25.515625 C-25.18013454 31.70044275 -24.8019393 32.77876307 -20.2109375 36.515625 C-13.66311148 38.65341625 -7.26700444 37.9739182 -1.03515625 35.26953125 C0.88172017 34.47733179 2.76909658 33.97491085 4.7890625 33.515625 C7.7890625 38.140625 7.7890625 38.140625 7.7890625 41.515625 C6.37578121 42.33399942 4.95827904 43.14508719 3.5390625 43.953125 C2.75015625 44.40558594 1.96125 44.85804687 1.1484375 45.32421875 C-5.55566066 48.70956633 -13.82535038 48.4666432 -21.0390625 46.90234375 C-28.18274322 44.41520338 -32.89876113 40.09868887 -36.3046875 33.34765625 C-39.15870434 25.88228813 -39.26702178 18.67862225 -36.4609375 11.203125 C-33.63944308 4.89915669 -30.34207578 0.87039878 -24.2109375 -2.484375 C-15.63306489 -5.49472275 -7.57375962 -5.25033535 0 0 Z M-25.0859375 9.328125 C-26.60719503 12.01278527 -26.60719503 12.01278527 -27.2109375 17.515625 C-18.6309375 17.515625 -10.0509375 17.515625 -1.2109375 17.515625 C-1.62047993 10.90523235 -1.62047993 10.90523235 -4.2109375 7.640625 C-11.00508718 2.82810231 -19.05232252 3.49563052 -25.0859375 9.328125 Z " fill="#DCDCDC" transform="translate(252.2109375,22.484375)"/>
<path d="M0 0 C4.71886838 6.16074482 5.14861212 10.69512342 5.09765625 18.265625 C5.0962413 19.05902283 5.09482635 19.85242065 5.09336853 20.66986084 C5.08778415 23.19661272 5.07523454 25.72327504 5.0625 28.25 C5.05748298 29.96614455 5.05292043 31.68229049 5.04882812 33.3984375 C5.03781984 37.59899269 5.02056596 41.79948117 5 46 C1.7 46 -1.6 46 -5 46 C-5.495 44.02 -5.495 44.02 -6 42 C-7.3921875 42.9590625 -7.3921875 42.9590625 -8.8125 43.9375 C-14.14022289 47.3848501 -18.80456763 47.65263457 -25 47 C-30.8766989 45.22072265 -34.65096907 42.07428929 -38 37 C-39.53896067 32.17792323 -38.94154133 28.64281623 -37 24 C-30.50759114 17.50759114 -24.45182584 16.63065212 -15.6875 15.875 C-14.75615234 15.78863281 -13.82480469 15.70226562 -12.86523438 15.61328125 C-10.57735027 15.40209195 -8.28906654 15.19788734 -6 15 C-6.28151087 13.68528432 -6.57553339 12.37324233 -6.875 11.0625 C-7.03742188 10.33160156 -7.19984375 9.60070312 -7.3671875 8.84765625 C-7.82961523 6.79299706 -7.82961523 6.79299706 -10 6 C-17.44390196 5.45862531 -23.34290481 5.60063224 -30 9 C-31.32 9 -32.64 9 -34 9 C-35.76462683 5.91190305 -36 4.76687864 -36 1 C-24.82020034 -5.32818848 -11.2007859 -7.83672733 0 0 Z M-27 27 C-28.010818 30.62209783 -28.27088303 32.40663717 -26.6875 35.875 C-23.1613172 38.66314454 -20.79948179 38.59451224 -16.40625 38.35546875 C-12.02861348 37.70877245 -9.8814258 36.16474124 -7.25 32.6875 C-5.89209968 29.76801431 -5.47219793 27.16984721 -5 24 C-13.05364285 23.66391289 -19.49783264 23.9482709 -27 27 Z " fill="#DBDBDB" transform="translate(103,23)"/>
<path d="M0 0 C1.37478516 0.01740234 1.37478516 0.01740234 2.77734375 0.03515625 C3.69644531 0.04417969 4.61554688 0.05320312 5.5625 0.0625 C6.27277344 0.07410156 6.98304688 0.08570312 7.71484375 0.09765625 C7.73466309 1.10143311 7.75448242 2.10520996 7.77490234 3.1394043 C7.85118124 6.87630591 7.93986361 10.61282942 8.03222656 14.34936523 C8.07042447 15.96419795 8.1052932 17.57911309 8.13671875 19.1940918 C8.18256984 21.52031842 8.24052959 23.84598217 8.30078125 26.171875 C8.31233246 26.88977707 8.32388367 27.60767914 8.33578491 28.34733582 C8.45216714 32.33220313 8.85944471 35.54279152 10.71484375 39.09765625 C14.30694143 41.66996349 17.39900468 41.2350435 21.59375 40.62890625 C24.71106384 39.84814256 25.95384411 38.7743757 27.71484375 36.09765625 C29.30485601 31.33667421 29.99537728 27.07764887 30.12890625 22.0703125 C30.16757813 20.78447266 30.20625 19.49863281 30.24609375 18.17382812 C30.27753874 16.83594207 30.30878634 15.49805136 30.33984375 14.16015625 C30.37808717 12.79489869 30.41714245 11.42966361 30.45703125 10.06445312 C30.55094312 6.74232085 30.63662162 3.42018884 30.71484375 0.09765625 C34.01484375 0.09765625 37.31484375 0.09765625 40.71484375 0.09765625 C40.71484375 16.59765625 40.71484375 33.09765625 40.71484375 50.09765625 C37.41484375 50.09765625 34.11484375 50.09765625 30.71484375 50.09765625 C30.21984375 48.11765625 30.21984375 48.11765625 29.71484375 46.09765625 C28.32265625 47.05671875 28.32265625 47.05671875 26.90234375 48.03515625 C21.57941561 51.47940387 16.90611386 51.75805839 10.71484375 51.09765625 C5.48298977 49.45768839 1.49656325 46.91217077 -1.28515625 42.09765625 C-3.59350685 34.37833327 -3.55982079 26.78166756 -3.4909668 18.80175781 C-3.47246601 16.57475583 -3.47045925 14.34816532 -3.47070312 12.12109375 C-3.42914599 0.1465447 -3.42914599 0.1465447 0 0 Z " fill="#E0E0E0" transform="translate(169.28515625,18.90234375)"/>
<path d="M0 0 C4.62 0 9.24 0 14 0 C14 20.46 14 40.92 14 62 C13.67 62 13.34 62 13 62 C13 42.2 13 22.4 13 2 C9.37 2 5.74 2 2 2 C2 9.59 2 17.18 2 25 C1.01 24.67 0.02 24.34 -1 24 C-0.67 16.08 -0.34 8.16 0 0 Z " fill="#ADADAD" transform="translate(310,3)"/>
<path d="M0 0 C3.96 0 7.92 0 12 0 C12 3.63 12 7.26 12 11 C8.04 11 4.08 11 0 11 C0 7.37 0 3.74 0 0 Z " fill="#FFFFFE" transform="translate(265,55)"/>
<path d="M0 0 C3.3 0 6.6 0 10 0 C10.04950124 7.15331009 10.08576789 14.30652007 10.10986328 21.45996094 C10.11991013 23.8925958 10.13354994 26.32521862 10.15087891 28.7578125 C10.17518467 32.25784277 10.18649644 35.75771312 10.1953125 39.2578125 C10.20563507 40.34240753 10.21595764 41.42700256 10.22659302 42.54446411 C10.22736486 47.75921599 10.12305726 52.12945687 8 57 C7.67 57 7.34 57 7 57 C7.33 38.85 7.66 20.7 8 2 C5.69 2 3.38 2 1 2 C1 3.65 1 5.3 1 7 C0.67 7 0.34 7 0 7 C0 4.69 0 2.38 0 0 Z " fill="#8B8B8B" transform="translate(150,19)"/>
<path d="M0 0 C4.62 0 9.24 0 14 0 C14.66 1.98 15.32 3.96 16 6 C15.34 5.67 14.68 5.34 14 5 C14 4.01 14 3.02 14 2 C12.20759337 2.11389875 10.41605165 2.24147687 8.625 2.375 C7.62726563 2.44460937 6.62953125 2.51421875 5.6015625 2.5859375 C2.84491121 2.76363964 2.84491121 2.76363964 1 5 C0.67 3.35 0.34 1.7 0 0 Z " fill="#888888" transform="translate(364,22)"/>
<path d="M0 0 C0.66 0.33 1.32 0.66 2 1 C-0.97 3.97 -3.94 6.94 -7 10 C-7 6.04435836 -5.59478606 4.89133304 -3 2 C-2.01 1.34 -1.02 0.68 0 0 Z " fill="#BEBEBE" transform="translate(336,24)"/>
<path d="M0 0 C0.66 0.33 1.32 0.66 2 1 C-0.97 3.97 -3.94 6.94 -7 10 C-7 7 -7 7 -4.625 4.4375 C-3.75875 3.633125 -2.8925 2.82875 -2 2 C-1.34 1.34 -0.68 0.68 0 0 Z " fill="#B0B0B0" transform="translate(226,21)"/>
<path d="M0 0 C0.66 0.66 1.32 1.32 2 2 C1.34 2 0.68 2 0 2 C0 1.34 0 0.68 0 0 Z " fill="#000000" transform="translate(113,81)"/>
<path d="M0 0 C0.33 0.66 0.66 1.32 1 2 C0.34 1.67 -0.32 1.34 -1 1 C-0.67 0.67 -0.34 0.34 0 0 Z " fill="#000000" transform="translate(369,64)"/>
<path d="M0 0 C2 1 2 1 2 1 Z " fill="#000000" transform="translate(54,66)"/>
<path d="" fill="#000000" transform="translate(0,0)"/>
<path d="" fill="#000000" transform="translate(0,0)"/>
<path d="" fill="#000000" transform="translate(0,0)"/>
<path d="" fill="#000000" transform="translate(0,0)"/>
<path d="" fill="#000000" transform="translate(0,0)"/>
<path d="" fill="#000000" transform="translate(0,0)"/>
<path d="" fill="#000000" transform="translate(0,0)"/>
<path d="" fill="#000000" transform="translate(0,0)"/>
<path d="" fill="#000000" transform="translate(0,0)"/>
<path d="" fill="#000000" transform="translate(0,0)"/>
<path d="" fill="#000000" transform="translate(0,0)"/>
<path d="" fill="#000000" transform="translate(0,0)"/>
<path d="" fill="#000000" transform="translate(0,0)"/>
<path d="" fill="#000000" transform="translate(0,0)"/>
<path d="" fill="#000000" transform="translate(0,0)"/>
<path d="" fill="#000000" transform="translate(0,0)"/>
<path d="" fill="#000000" transform="translate(0,0)"/>
<path d="" fill="#000000" transform="translate(0,0)"/>
<path d="" fill="#000000" transform="translate(0,0)"/>
<path d="" fill="#000000" transform="translate(0,0)"/>
<path d="" fill="#000000" transform="translate(0,0)"/>
<path d="" fill="#000000" transform="translate(0,0)"/>
<path d="" fill="#000000" transform="translate(0,0)"/>
<path d="" fill="#000000" transform="translate(0,0)"/>
<path d="" fill="#000000" transform="translate(0,0)"/>
<path d="" fill="#000000" transform="translate(0,0)"/>
<path d="" fill="#000000" transform="translate(0,0)"/>
<path d="" fill="#000000" transform="translate(0,0)"/>
<path d="" fill="#000000" transform="translate(0,0)"/>
<path d="" fill="#000000" transform="translate(0,0)"/>
<path d="" fill="#000000" transform="translate(0,0)"/>
<path d="" fill="#000000" transform="translate(0,0)"/>
<path d="" fill="#000000" transform="translate(0,0)"/>
<path d="" fill="#000000" transform="translate(0,0)"/>
<path d="" fill="#000000" transform="translate(0,0)"/>
<path d="" fill="#000000" transform="translate(0,0)"/>
<path d="" fill="#000000" transform="translate(0,0)"/>
<path d="" fill="#000000" transform="translate(0,0)"/>
<path d="" fill="#000000" transform="translate(0,0)"/>
<path d="" fill="#000000" transform="translate(0,0)"/>
<path d="" fill="#000000" transform="translate(0,0)"/>
<path d="" fill="#000000" transform="translate(0,0)"/>
<path d="" fill="#000000" transform="translate(0,0)"/>
<path d="" fill="#000000" transform="translate(0,0)"/>
<path d="" fill="#000000" transform="translate(0,0)"/>
<path d="" fill="#000000" transform="translate(0,0)"/>
<path d="" fill="#000000" transform="translate(0,0)"/>
<path d="" fill="#000000" transform="translate(0,0)"/>
<path d="" fill="#000000" transform="translate(0,0)"/>
<path d="" fill="#000000" transform="translate(0,0)"/>
<path d="" fill="#000000" transform="translate(0,0)"/>
<path d="" fill="#000000" transform="translate(0,0)"/>
<path d="" fill="#000000" transform="translate(0,0)"/>
<path d="" fill="#000000" transform="translate(0,0)"/>
<path d="" fill="#000000" transform="translate(0,0)"/>
<path d="" fill="#000000" transform="translate(0,0)"/>
<path d="" fill="#000000" transform="translate(0,0)"/>
<path d="" fill="#000000" transform="translate(0,0)"/>
<path d="" fill="#000000" transform="translate(0,0)"/>
<path d="" fill="#000000" transform="translate(0,0)"/>
<path d="" fill="#000000" transform="translate(0,0)"/>
<path d="" fill="#000000" transform="translate(0,0)"/>
<path d="" fill="#000000" transform="translate(0,0)"/>
<path d="" fill="#000000" transform="translate(0,0)"/>
<path d="" fill="#000000" transform="translate(0,0)"/>
<path d="" fill="#000000" transform="translate(0,0)"/>
<path d="" fill="#000000" transform="translate(0,0)"/>
<path d="" fill="#000000" transform="translate(0,0)"/>
<path d="" fill="#000000" transform="translate(0,0)"/>
<path d="" fill="#000000" transform="translate(0,0)"/>
<path d="" fill="#000000" transform="translate(0,0)"/>
<path d="" fill="#000000" transform="translate(0,0)"/>
<path d="" fill="#000000" transform="translate(0,0)"/>
<path d="" fill="#000000" transform="translate(0,0)"/>
<path d="" fill="#000000" transform="translate(0,0)"/>
<path d="" fill="#000000" transform="translate(0,0)"/>
<path d="" fill="#000000" transform="translate(0,0)"/>
<path d="" fill="#000000" transform="translate(0,0)"/>
<path d="" fill="#000000" transform="translate(0,0)"/>
<path d="" fill="#000000" transform="translate(0,0)"/>
<path d="" fill="#000000" transform="translate(0,0)"/>
<path d="" fill="#000000" transform="translate(0,0)"/>
<path d="" fill="#000000" transform="translate(0,0)"/>
<path d="" fill="#000000" transform="translate(0,0)"/>
<path d="" fill="#000000" transform="translate(0,0)"/>
<path d="" fill="#000000" transform="translate(0,0)"/>
<path d="" fill="#000000" transform="translate(0,0)"/>
<path d="" fill="#000000" transform="translate(0,0)"/>
<path d="" fill="#000000" transform="translate(0,0)"/>
<path d="" fill="#000000" transform="translate(0,0)"/>
<path d="" fill="#000000" transform="translate(0,0)"/>
<path d="" fill="#000000" transform="translate(0,0)"/>
<path d="" fill="#000000" transform="translate(0,0)"/>
<path d="" fill="#000000" transform="translate(0,0)"/>
<path d="" fill="#000000" transform="translate(0,0)"/>
<path d="" fill="#000000" transform="translate(0,0)"/>
<path d="" fill="#000000" transform="translate(0,0)"/>
<path d="" fill="#000000" transform="translate(0,0)"/>
<path d="" fill="#000000" transform="translate(0,0)"/>
<path d="" fill="#000000" transform="translate(0,0)"/>
<path d="" fill="#000000" transform="translate(0,0)"/>
<path d="" fill="#000000" transform="translate(0,0)"/>
<path d="" fill="#000000" transform="translate(0,0)"/>
<path d="" fill="#000000" transform="translate(0,0)"/>
<path d="" fill="#000000" transform="translate(0,0)"/>
<path d="" fill="#000000" transform="translate(0,0)"/>
<path d="" fill="#000000" transform="translate(0,0)"/>
<path d="" fill="#000000" transform="translate(0,0)"/>
<path d="" fill="#000000" transform="translate(0,0)"/>
<path d="" fill="#000000" transform="translate(0,0)"/>
<path d="" fill="#000000" transform="translate(0,0)"/>
<path d="" fill="#000000" transform="translate(0,0)"/>
<path d="" fill="#000000" transform="translate(0,0)"/>
<path d="" fill="#000000" transform="translate(0,0)"/>
<path d="" fill="#000000" transform="translate(0,0)"/>
<path d="" fill="#000000" transform="translate(0,0)"/>
<path d="" fill="#000000" transform="translate(0,0)"/>
<path d="" fill="#000000" transform="translate(0,0)"/>
<path d="" fill="#000000" transform="translate(0,0)"/>
<path d="" fill="#000000" transform="translate(0,0)"/>
<path d="" fill="#000000" transform="translate(0,0)"/>
<path d="" fill="#000000" transform="translate(0,0)"/>
<path d="" fill="#000000" transform="translate(0,0)"/>
<path d="" fill="#000000" transform="translate(0,0)"/>
<path d="" fill="#000000" transform="translate(0,0)"/>
<path d="" fill="#000000" transform="translate(0,0)"/>
<path d="" fill="#000000" transform="translate(0,0)"/>
<path d="" fill="#000000" transform="translate(0,0)"/>
<path d="" fill="#000000" transform="translate(0,0)"/>
<path d="" fill="#000000" transform="translate(0,0)"/>
<path d="" fill="#000000" transform="translate(0,0)"/>
<path d="" fill="#000000" transform="translate(0,0)"/>
<path d="" fill="#000000" transform="translate(0,0)"/>
<path d="" fill="#000000" transform="translate(0,0)"/>
<path d="" fill="#000000" transform="translate(0,0)"/>
<path d="" fill="#000000" transform="translate(0,0)"/>
<path d="" fill="#000000" transform="translate(0,0)"/>
<path d="" fill="#000000" transform="translate(0,0)"/>
<path d="" fill="#000000" transform="translate(0,0)"/>
<path d="" fill="#000000" transform="translate(0,0)"/>
<path d="" fill="#000000" transform="translate(0,0)"/>
<path d="" fill="#000000" transform="translate(0,0)"/>
<path d="" fill="#000000" transform="translate(0,0)"/>
<path d="" fill="#000000" transform="translate(0,0)"/>
<path d="" fill="#000000" transform="translate(0,0)"/>
<path d="" fill="#000000" transform="translate(0,0)"/>
<path d="" fill="#000000" transform="translate(0,0)"/>
<path d="" fill="#000000" transform="translate(0,0)"/>
<path d="" fill="#000000" transform="translate(0,0)"/>
<path d="" fill="#000000" transform="translate(0,0)"/>
<path d="" fill="#000000" transform="translate(0,0)"/>
<path d="" fill="#000000" transform="translate(0,0)"/>
<path d="" fill="#000000" transform="translate(0,0)"/>
<path d="" fill="#000000" transform="translate(0,0)"/>
<path d="" fill="#000000" transform="translate(0,0)"/>
<path d="" fill="#000000" transform="translate(0,0)"/>
<path d="" fill="#000000" transform="translate(0,0)"/>
<path d="" fill="#000000" transform="translate(0,0)"/>
<path d="" fill="#000000" transform="translate(0,0)"/>
<path d="" fill="#000000" transform="translate(0,0)"/>
<path d="" fill="#000000" transform="translate(0,0)"/>
<path d="" fill="#000000" transform="translate(0,0)"/>
<path d="" fill="#000000" transform="translate(0,0)"/>
<path d="" fill="#000000" transform="translate(0,0)"/>
<path d="" fill="#000000" transform="translate(0,0)"/>
<path d="" fill="#000000" transform="translate(0,0)"/>
<path d="" fill="#000000" transform="translate(0,0)"/>
<path d="" fill="#000000" transform="translate(0,0)"/>
<path d="" fill="#000000" transform="translate(0,0)"/>
<path d="" fill="#000000" transform="translate(0,0)"/>
<path d="" fill="#000000" transform="translate(0,0)"/>
<path d="" fill="#000000" transform="translate(0,0)"/>
<path d="" fill="#000000" transform="translate(0,0)"/>
<path d="" fill="#000000" transform="translate(0,0)"/>
<path d="" fill="#000000" transform="translate(0,0)"/>
<path d="" fill="#000000" transform="translate(0,0)"/>
<path d="" fill="#000000" transform="translate(0,0)"/>
<path d="" fill="#000000" transform="translate(0,0)"/>
<path d="" fill="#000000" transform="translate(0,0)"/>
<path d="" fill="#000000" transform="translate(0,0)"/>
<path d="" fill="#000000" transform="translate(0,0)"/>
<path d="" fill="#000000" transform="translate(0,0)"/>
<path d="" fill="#000000" transform="translate(0,0)"/>
<path d="" fill="#000000" transform="translate(0,0)"/>
<path d="" fill="#000000" transform="translate(0,0)"/>
<path d="" fill="#000000" transform="translate(0,0)"/>
<path d="" fill="#000000" transform="translate(0,0)"/>
<path d="" fill="#000000" transform="translate(0,0)"/>
<path d="" fill="#000000" transform="translate(0,0)"/>
<path d="" fill="#000000" transform="translate(0,0)"/>
<path d="" fill="#000000" transform="translate(0,0)"/>
<path d="" fill="#000000" transform="translate(0,0)"/>
<path d="" fill="#000000" transform="translate(0,0)"/>
<path d="" fill="#000000" transform="translate(0,0)"/>
<path d="" fill="#000000" transform="translate(0,0)"/>
<path d="" fill="#000000" transform="translate(0,0)"/>
<path d="" fill="#000000" transform="translate(0,0)"/>
<path d="" fill="#000000" transform="translate(0,0)"/>
<path d="" fill="#000000" transform="translate(0,0)"/>
<path d="" fill="#000000" transform="translate(0,0)"/>
<path d="" fill="#000000" transform="translate(0,0)"/>
<path d="" fill="#000000" transform="translate(0,0)"/>
<path d="" fill="#000000" transform="translate(0,0)"/>
<path d="" fill="#000000" transform="translate(0,0)"/>
<path d="" fill="#000000" transform="translate(0,0)"/>
<path d="" fill="#000000" transform="translate(0,0)"/>
<path d="" fill="#000000" transform="translate(0,0)"/>
<path d="" fill="#000000" transform="translate(0,0)"/>
<path d="" fill="#000000" transform="translate(0,0)"/>
<path d="" fill="#000000" transform="translate(0,0)"/>
<path d="" fill="#000000" transform="translate(0,0)"/>
<path d="" fill="#000000" transform="translate(0,0)"/>
<path d="" fill="#000000" transform="translate(0,0)"/>
<path d="" fill="#000000" transform="translate(0,0)"/>
<path d="" fill="#000000" transform="translate(0,0)"/>
<path d="" fill="#000000" transform="translate(0,0)"/>
<path d="" fill="#000000" transform="translate(0,0)"/>
<path d="" fill="#000000" transform="translate(0,0)"/>
<path d="" fill="#000000" transform="translate(0,0)"/>
<path d="" fill="#000000" transform="translate(0,0)"/>
<path d="" fill="#000000" transform="translate(0,0)"/>
<path d="" fill="#000000" transform="translate(0,0)"/>
<path d="" fill="#000000" transform="translate(0,0)"/>
<path d="" fill="#000000" transform="translate(0,0)"/>
<path d="" fill="#000000" transform="translate(0,0)"/>
<path d="" fill="#000000" transform="translate(0,0)"/>
<path d="" fill="#000000" transform="translate(0,0)"/>
<path d="" fill="#000000" transform="translate(0,0)"/>
<path d="" fill="#000000" transform="translate(0,0)"/>
<path d="" fill="#000000" transform="translate(0,0)"/>
<path d="" fill="#000000" transform="translate(0,0)"/>
<path d="" fill="#000000" transform="translate(0,0)"/>
<path d="" fill="#000000" transform="translate(0,0)"/>
<path d="" fill="#000000" transform="translate(0,0)"/>
<path d="" fill="#000000" transform="translate(0,0)"/>
<path d="" fill="#000000" transform="translate(0,0)"/>
<path d="" fill="#000000" transform="translate(0,0)"/>
<path d="" fill="#000000" transform="translate(0,0)"/>
<path d="" fill="#000000" transform="translate(0,0)"/>
<path d="" fill="#000000" transform="translate(0,0)"/>
<path d="" fill="#000000" transform="translate(0,0)"/>
<path d="" fill="#000000" transform="translate(0,0)"/>
<path d="" fill="#000000" transform="translate(0,0)"/>
<path d="" fill="#000000" transform="translate(0,0)"/>
<path d="" fill="#000000" transform="translate(0,0)"/>
<path d="" fill="#000000" transform="translate(0,0)"/>
<path d="" fill="#000000" transform="translate(0,0)"/>
<path d="" fill="#000000" transform="translate(0,0)"/>
<path d="" fill="#000000" transform="translate(0,0)"/>
<path d="" fill="#000000" transform="translate(0,0)"/>
<path d="" fill="#000000" transform="translate(0,0)"/>
<path d="" fill="#000000" transform="translate(0,0)"/>
<path d="" fill="#000000" transform="translate(0,0)"/>
<path d="" fill="#000000" transform="translate(0,0)"/>
<path d="" fill="#000000" transform="translate(0,0)"/>
<path d="" fill="#000000" transform="translate(0,0)"/>
<path d="" fill="#000000" transform="translate(0,0)"/>
<path d="" fill="#000000" transform="translate(0,0)"/>
<path d="" fill="#000000" transform="translate(0,0)"/>
<path d="" fill="#000000" transform="translate(0,0)"/>
<path d="" fill="#000000" transform="translate(0,0)"/>
<path d="" fill="#000000" transform="translate(0,0)"/>
<path d="" fill="#000000" transform="translate(0,0)"/>
<path d="" fill="#000000" transform="translate(0,0)"/>
<path d="" fill="#000000" transform="translate(0,0)"/>
<path d="" fill="#000000" transform="translate(0,0)"/>
<path d="" fill="#000000" transform="translate(0,0)"/>
<path d="" fill="#000000" transform="translate(0,0)"/>
<path d="" fill="#000000" transform="translate(0,0)"/>
<path d="" fill="#000000" transform="translate(0,0)"/>
<path d="" fill="#000000" transform="translate(0,0)"/>
<path d="" fill="#000000" transform="translate(0,0)"/>
<path d="" fill="#000000" transform="translate(0,0)"/>
<path d="" fill="#000000" transform="translate(0,0)"/>
<path d="" fill="#000000" transform="translate(0,0)"/>
<path d="" fill="#000000" transform="translate(0,0)"/>
<path d="" fill="#000000" transform="translate(0,0)"/>
<path d="" fill="#000000" transform="translate(0,0)"/>
<path d="" fill="#000000" transform="translate(0,0)"/>
<path d="" fill="#000000" transform="translate(0,0)"/>
<path d="" fill="#000000" transform="translate(0,0)"/>
<path d="" fill="#000000" transform="translate(0,0)"/>
<path d="" fill="#000000" transform="translate(0,0)"/>
<path d="" fill="#000000" transform="translate(0,0)"/>
<path d="" fill="#000000" transform="translate(0,0)"/>
<path d="" fill="#000000" transform="translate(0,0)"/>
<path d="" fill="#000000" transform="translate(0,0)"/>
<path d="" fill="#000000" transform="translate(0,0)"/>
<path d="" fill="#000000" transform="translate(0,0)"/>
<path d="" fill="#000000" transform="translate(0,0)"/>
<path d="" fill="#000000" transform="translate(0,0)"/>
<path d="" fill="#000000" transform="translate(0,0)"/>
<path d="" fill="#000000" transform="translate(0,0)"/>
<path d="" fill="#000000" transform="translate(0,0)"/>
<path d="" fill="#000000" transform="translate(0,0)"/>
<path d="" fill="#000000" transform="translate(0,0)"/>
<path d="" fill="#000000" transform="translate(0,0)"/>
<path d="" fill="#000000" transform="translate(0,0)"/>
<path d="" fill="#000000" transform="translate(0,0)"/>
<path d="" fill="#000000" transform="translate(0,0)"/>
<path d="" fill="#000000" transform="translate(0,0)"/>
<path d="" fill="#000000" transform="translate(0,0)"/>
<path d="" fill="#000000" transform="translate(0,0)"/>
<path d="" fill="#000000" transform="translate(0,0)"/>
<path d="" fill="#000000" transform="translate(0,0)"/>
<path d="" fill="#000000" transform="translate(0,0)"/>
<path d="" fill="#000000" transform="translate(0,0)"/>
<path d="" fill="#000000" transform="translate(0,0)"/>
<path d="" fill="#000000" transform="translate(0,0)"/>
<path d="" fill="#000000" transform="translate(0,0)"/>
<path d="" fill="#000000" transform="translate(0,0)"/>
<path d="" fill="#000000" transform="translate(0,0)"/>
<path d="" fill="#000000" transform="translate(0,0)"/>
<path d="" fill="#000000" transform="translate(0,0)"/>
<path d="" fill="#000000" transform="translate(0,0)"/>
<path d="" fill="#000000" transform="translate(0,0)"/>
<path d="" fill="#000000" transform="translate(0,0)"/>
<path d="" fill="#000000" transform="translate(0,0)"/>
<path d="" fill="#000000" transform="translate(0,0)"/>
<path d="" fill="#000000" transform="translate(0,0)"/>
<path d="" fill="#000000" transform="translate(0,0)"/>
<path d="" fill="#000000" transform="translate(0,0)"/>
<path d="" fill="#000000" transform="translate(0,0)"/>
<path d="" fill="#000000" transform="translate(0,0)"/>
<path d="" fill="#000000" transform="translate(0,0)"/>
<path d="" fill="#000000" transform="translate(0,0)"/>
<path d="" fill="#000000" transform="translate(0,0)"/>
<path d="" fill="#000000" transform="translate(0,0)"/>
<path d="" fill="#000000" transform="translate(0,0)"/>
<path d="" fill="#000000" transform="translate(0,0)"/>
<path d="" fill="#000000" transform="translate(0,0)"/>
<path d="" fill="#000000" transform="translate(0,0)"/>
<path d="" fill="#000000" transform="translate(0,0)"/>
<path d="" fill="#000000" transform="translate(0,0)"/>
<path d="" fill="#000000" transform="translate(0,0)"/>
<path d="" fill="#000000" transform="translate(0,0)"/>
<path d="" fill="#000000" transform="translate(0,0)"/>
<path d="" fill="#000000" transform="translate(0,0)"/>
<path d="" fill="#000000" transform="translate(0,0)"/>
<path d="" fill="#000000" transform="translate(0,0)"/>
<path d="" fill="#000000" transform="translate(0,0)"/>
<path d="" fill="#000000" transform="translate(0,0)"/>
<path d="" fill="#000000" transform="translate(0,0)"/>
<path d="" fill="#000000" transform="translate(0,0)"/>
<path d="" fill="#000000" transform="translate(0,0)"/>
<path d="" fill="#000000" transform="translate(0,0)"/>
<path d="" fill="#000000" transform="translate(0,0)"/>
<path d="" fill="#000000" transform="translate(0,0)"/>
<path d="" fill="#000000" transform="translate(0,0)"/>
<path d="" fill="#000000" transform="translate(0,0)"/>
<path d="" fill="#000000" transform="translate(0,0)"/>
<path d="" fill="#000000" transform="translate(0,0)"/>
<path d="" fill="#000000" transform="translate(0,0)"/>
<path d="" fill="#000000" transform="translate(0,0)"/>
<path d="" fill="#000000" transform="translate(0,0)"/>
<path d="" fill="#000000" transform="translate(0,0)"/>
<path d="" fill="#000000" transform="translate(0,0)"/>
<path d="" fill="#000000" transform="translate(0,0)"/>
<path d="" fill="#000000" transform="translate(0,0)"/>
<path d="" fill="#000000" transform="translate(0,0)"/>
<path d="" fill="#000000" transform="translate(0,0)"/>
<path d="" fill="#000000" transform="translate(0,0)"/>
<path d="" fill="#000000" transform="translate(0,0)"/>
<path d="" fill="#000000" transform="translate(0,0)"/>
<path d="" fill="#000000" transform="translate(0,0)"/>
<path d="" fill="#000000" transform="translate(0,0)"/>
<path d="" fill="#000000" transform="translate(0,0)"/>
<path d="" fill="#000000" transform="translate(0,0)"/>
<path d="" fill="#000000" transform="translate(0,0)"/>
<path d="" fill="#000000" transform="translate(0,0)"/>
<path d="" fill="#000000" transform="translate(0,0)"/>
<path d="" fill="#000000" transform="translate(0,0)"/>
<path d="" fill="#000000" transform="translate(0,0)"/>
<path d="" fill="#000000" transform="translate(0,0)"/>
<path d="" fill="#000000" transform="translate(0,0)"/>
<path d="" fill="#000000" transform="translate(0,0)"/>
<path d="" fill="#000000" transform="translate(0,0)"/>
<path d="" fill="#000000" transform="translate(0,0)"/>
<path d="" fill="#000000" transform="translate(0,0)"/>
<path d="" fill="#000000" transform="translate(0,0)"/>
<path d="" fill="#000000" transform="translate(0,0)"/>
<path d="" fill="#000000" transform="translate(0,0)"/>
<path d="" fill="#000000" transform="translate(0,0)"/>
<path d="" fill="#000000" transform="translate(0,0)"/>
<path d="" fill="#000000" transform="translate(0,0)"/>
<path d="" fill="#000000" transform="translate(0,0)"/>
<path d="" fill="#000000" transform="translate(0,0)"/>
<path d="" fill="#000000" transform="translate(0,0)"/>
<path d="" fill="#000000" transform="translate(0,0)"/>
<path d="" fill="#000000" transform="translate(0,0)"/>
<path d="" fill="#000000" transform="translate(0,0)"/>
<path d="" fill="#000000" transform="translate(0,0)"/>
<path d="" fill="#000000" transform="translate(0,0)"/>
<path d="" fill="#000000" transform="translate(0,0)"/>
<path d="" fill="#000000" transform="translate(0,0)"/>
<path d="" fill="#000000" transform="translate(0,0)"/>
<path d="" fill="#000000" transform="translate(0,0)"/>
</svg>
