<svg xmlns="http://www.w3.org/2000/svg" viewBox="0 0 468 222" fill="none">
  <path d="M414 113.4c0-25.6-12.4-45.8-36.1-45.8-23.8 0-38.2 20.2-38.2 45.6 0 30.1 17 45.3 41.4 45.3 11.9 0 20.9-2.7 27.7-6.4V148c-6.8 3.7-14.6 5.5-24.5 5.5-9.7 0-18.3-3.4-19.4-15.2h48.9c0-1.3.2-6.5.2-13.9zm-49.4-9.5c0-11.3 6.9-16 13.2-16 6.1 0 12.6 4.7 12.6 16h-25.8z" fill="currentColor"/>
  <path d="M301.1 67.6c-9.8 0-16.1 4.6-19.6 7.8l-1.3-6.2h-22v116.2l25-5.3.1-28.3c3.6 2.6 8.9 6.3 17.7 6.3 17.9 0 34.1-14.4 34.1-46.1-.1-22-11.7-44.4-34-44.4zm-6 68.9c-5.9 0-9.4-2.1-11.8-4.7l-.1-37.1c2.6-2.9 6.2-4.9 11.9-4.9 9.1 0 15.4 10.2 15.4 23.3 0 13.4-6.2 23.4-15.4 23.4z" fill="currentColor"/>
  <path d="M223.3 61.3l25.1-5.4V36.4l-25.1 5.3v19.6z" fill="currentColor"/>
  <path d="M223.3 69.3h25.1v87.5h-25.1V69.3z" fill="currentColor"/>
  <path d="M196.9 76.7l-1.6-7.4h-21.6v87.5h25V97.5l15.1 66.3h29.2l-18.8-79.7c4.5-3.6 9.9-7.4 15.8-7.4v-22.8c-8.3 0-15.1 2.3-24.3 11.4z" fill="currentColor"/>
  <path d="M146.9 47.6l-24.4 5.2-.1 80.1c0 14.8 11.1 25.1 25.9 25.1 8.2 0 14.2-1.5 17.5-3.3V135c-3.2 1.3-19 5.9-19-8.9V90.6h19V69.3h-19V47.6z" fill="currentColor"/>
  <path d="M79.3 94.7c0-3.9 3.2-5.4 8.5-5.4 7.6 0 17.2 2.3 24.8 6.4V72.2c-8.3-3.3-16.5-4.6-24.8-4.6C67.5 67.6 54 78.2 54 95.9c0 27.6 38 23.2 38 35.1 0 4.6-4 6.1-9.6 6.1-8.3 0-18.9-3.4-27.3-8v23.8c9.3 4 18.7 5.7 27.3 5.7 20.8 0 35.1-10.3 35.1-28.2-.1-29.8-38.2-25.5-38.2-35.7z" fill="currentColor"/>
</svg>
