<svg xmlns="http://www.w3.org/2000/svg" width="526" height="474" viewBox="0 0 526 474">
<g>
<path d="M 264.32 434.09 C257.19,435.26 254.08,435.09 233.50,432.41 C214.92,429.99 201.86,426.55 183.00,419.10 C172.18,414.83 154.30,405.32 145.50,399.15 C134.23,391.25 132.06,389.49 121.98,380.09 C98.88,358.56 83.55,336.39 71.42,307.00 C68.81,300.67 66.51,295.30 66.31,295.05 C66.10,294.81 64.65,295.37 63.06,296.30 C58.64,298.92 54.33,298.48 50.92,295.08 C47.77,291.92 47.18,288.08 49.29,284.35 C49.95,283.16 60.17,272.82 72.00,261.36 C83.82,249.91 99.18,235.02 106.12,228.27 C116.45,218.22 119.27,216.00 121.68,216.00 C127.95,216.00 128.39,217.14 129.12,235.15 C129.48,244.14 130.31,254.36 130.95,257.86 C134.08,274.84 140.90,292.33 149.63,305.79 C154.82,313.79 170.09,330.08 178.57,336.65 C184.65,341.37 199.47,349.63 208.38,353.28 C217.17,356.87 217.63,357.32 237.13,381.50 C242.89,388.65 252.31,400.27 258.05,407.33 C272.22,424.73 272.25,424.77 272.25,427.65 C272.25,431.24 269.87,433.18 264.32,434.09 ZM 71.50 216.73 C65.94,219.53 63.84,219.99 61.32,218.98 C56.45,217.04 55.78,210.21 59.04,195.62 C65.27,167.70 74.09,145.89 89.09,121.34 C108.93,88.86 140.57,60.45 176.05,43.26 C191.97,35.54 215.93,27.15 227.17,25.36 C228.01,25.22 228.61,25.05 229.22,25.04 C231.62,25.02 234.05,27.61 250.89,45.60 C252.32,47.12 253.85,48.75 255.49,50.51 C263.74,59.30 273.05,69.21 276.18,72.52 C282.63,79.33 284.54,83.13 282.98,86.04 C281.34,89.10 279.10,89.78 266.96,90.94 C244.36,93.08 228.14,97.58 207.50,107.44 C178.74,121.18 154.05,145.93 139.93,175.19 C137.90,179.38 136.66,180.42 128.08,185.09 C122.81,187.96 113.10,193.25 106.50,196.85 C99.90,200.44 90.22,205.94 85.00,209.05 C79.78,212.17 73.70,215.63 71.50,216.73 ZM 330.64 423.43 C330.23,423.57 329.83,423.70 329.44,423.83 C322.53,426.15 318.94,427.35 315.78,426.65 C312.19,425.85 309.15,422.60 302.43,415.75 C296.35,409.56 285.15,397.83 277.53,389.69 C266.10,377.48 263.67,374.35 263.67,371.88 C263.67,366.65 266.38,365.11 277.53,364.02 C291.55,362.65 301.10,360.64 312.94,356.57 C352.02,343.12 381.56,315.18 397.04,277.00 L 401.70 265.50 L 417.60 251.63 C426.34,244.00 438.23,233.70 444.00,228.74 C449.77,223.78 455.89,218.49 457.59,216.98 C464.49,210.86 468.97,210.33 472.09,215.25 C474.00,218.25 474.12,219.54 473.61,232.06 C472.65,255.59 466.46,281.30 455.22,308.50 C452.63,314.76 442.53,333.29 437.65,340.75 C414.23,376.52 370.97,409.94 330.64,423.43 ZM 420.50 208.00 C413.53,213.81 410.24,214.39 407.07,210.37 C405.93,208.92 405.00,206.86 405.00,205.80 C405.00,203.57 400.59,185.66 398.39,179.00 C393.77,164.96 382.41,146.11 370.13,132.12 C364.02,125.17 348.41,112.25 334.98,103.04 C329.39,99.21 324.75,95.01 321.51,90.85 C318.79,87.36 307.32,73.56 296.03,60.19 C274.16,34.29 269.00,27.64 269.00,25.35 C269.00,24.56 270.10,22.80 271.45,21.45 C274.44,18.47 278.07,18.33 294.22,20.57 C331.47,25.73 365.68,39.89 395.71,62.57 C407.17,71.22 418.66,82.64 432.14,98.79 C436.59,104.12 447.11,120.14 451.47,128.25 C454.06,133.06 456.45,137.00 456.77,137.00 C457.09,137.00 460.18,136.05 463.63,134.88 C472.02,132.05 476.11,132.80 479.49,137.78 C480.77,139.65 481.74,141.01 482.00,142.49 C482.73,146.79 477.40,152.11 455.66,173.85 L 454.26 175.25 C438.99,190.51 423.80,205.25 420.50,208.00 ZM 231.50 414.37 C236.45,415.05 240.65,415.26 240.82,414.83 C241.26,413.78 240.25,412.45 212.45,377.58 C209.00,373.26 206.47,371.53 195.43,366.00 C183.21,359.87 173.55,354.04 168.09,349.50 C148.52,333.25 138.06,320.45 128.35,300.92 C121.11,286.33 114.00,261.18 114.00,250.12 C114.00,247.92 113.66,245.91 113.25,245.65 C112.83,245.40 104.91,252.52 95.63,261.47 L 78.77 277.76 L 81.48 286.13 C97.10,334.49 131.05,374.59 175.50,397.17 C181.00,399.97 185.95,402.59 186.50,402.99 C189.62,405.31 218.22,412.53 231.50,414.37 ZM 78.00 190.68 C78.00,191.40 78.24,192.00 78.53,192.00 C79.36,192.00 121.31,170.07 123.16,168.67 C124.08,167.97 127.73,162.41 131.29,156.29 C134.84,150.18 139.94,142.33 142.61,138.84 C149.61,129.72 166.19,113.90 176.57,106.43 C195.84,92.56 222.00,81.47 244.96,77.45 C249.62,76.64 253.77,75.63 254.19,75.21 C254.62,74.78 248.29,67.49 240.15,58.99 L 225.33 43.53 L 218.14 45.26 C209.00,47.45 187.75,55.92 178.00,61.25 C136.55,83.91 102.70,121.90 86.43,164.00 C82.56,174.02 78.00,188.45 78.00,190.68 ZM 306.68 395.11 C314.20,402.75 320.74,409.00 321.21,409.00 C321.69,409.00 326.00,407.48 330.79,405.61 C394.71,380.77 438.89,328.00 453.43,259.14 C456.03,246.83 456.62,240.98 455.25,241.03 C454.84,241.04 452.48,242.89 450.00,245.13 C444.41,250.21 441.32,252.98 427.62,265.29 L 416.71 275.09 L 408.60 291.33 C392.89,322.83 371.43,345.60 342.61,361.36 C328.59,369.03 308.09,376.64 295.75,378.76 C294.24,379.02 293.00,379.67 293.00,380.22 C293.00,380.77 299.15,387.46 306.68,395.11 ZM 418.00 182.44 C418.00,183.30 418.34,183.98 418.75,183.95 C419.16,183.93 425.74,177.95 433.36,170.66 L 447.23 157.42 L 441.72 146.46 C416.82,96.92 375.14,60.73 323.50,43.81 C316.26,41.43 303.43,38.26 302.74,38.68 C302.33,38.92 306.60,44.79 312.24,51.70 C317.88,58.62 326.55,69.26 331.50,75.35 C339.33,84.97 342.13,87.55 353.00,95.17 C372.13,108.57 383.64,119.60 395.82,136.21 C398.12,139.35 400.00,142.11 400.00,142.35 C400.00,142.59 401.99,146.32 404.42,150.64 C409.09,158.96 418.00,179.81 418.00,182.44 Z" fill="rgb(96,177,216)"/>
<path d="M 332.86 304.95 C329.36,305.52 326.27,305.94 326.00,305.88 C325.73,305.82 323.08,305.36 320.11,304.87 C306.83,302.67 294.91,291.27 289.66,275.75 C289.11,274.15 287.00,274.00 264.53,274.00 C245.57,274.00 240.00,274.28 240.00,275.25 C240.00,275.94 238.72,279.21 237.15,282.52 C233.46,290.33 226.14,297.57 218.19,301.29 C212.76,303.83 210.68,304.25 203.18,304.28 C195.26,304.32 193.86,304.02 187.54,300.91 C178.88,296.65 172.62,290.40 168.61,282.00 C165.69,275.89 165.50,274.81 165.50,263.96 C165.50,252.55 165.54,252.36 169.00,246.60 C176.94,233.41 187.12,227.75 203.21,227.59 C210.45,227.52 213.29,227.12 214.36,226.00 C215.15,225.18 220.10,218.10 225.37,210.27 L 234.94 196.04 L 230.82 188.41 C227.04,181.39 226.67,180.03 226.22,171.39 C225.63,160.05 227.27,153.81 233.20,144.94 C237.55,138.43 242.83,134.28 251.14,130.84 C258.70,127.71 272.06,127.77 280.50,130.97 C295.83,136.78 305.48,149.70 306.74,166.07 C307.52,176.20 304.90,183.98 297.58,193.28 L 294.61 197.07 L 296.49 200.28 C297.53,202.05 302.14,209.19 306.73,216.15 L 315.08 228.81 L 324.88 228.27 C333.17,227.81 335.65,228.05 341.09,229.87 C357.91,235.48 367.70,249.92 366.84,267.85 C365.95,286.26 351.62,301.91 332.86,304.95 ZM 251.70 258.05 C273.69,259.18 287.71,259.06 288.75,257.75 C289.29,257.06 290.50,254.17 291.43,251.32 C292.35,248.47 294.66,244.11 296.56,241.63 C298.45,239.15 300.00,236.84 300.00,236.50 C300.00,236.16 294.90,228.15 288.66,218.69 C282.42,209.24 276.79,200.52 276.16,199.32 C273.82,194.91 274.71,192.39 279.93,188.65 C292.62,179.53 294.37,162.82 283.76,151.99 C277.99,146.10 273.27,144.00 265.86,144.00 C258.11,144.00 252.35,146.60 247.47,152.31 C240.50,160.44 239.40,171.46 244.60,181.00 C246.75,184.96 248.45,186.46 254.35,189.65 C260.81,193.13 261.53,193.83 261.82,196.86 C262.31,201.93 258.97,205.00 252.99,205.00 L 248.33 205.00 L 243.41 212.23 C240.71,216.21 236.14,222.80 233.25,226.88 C230.36,230.96 228.00,234.84 228.00,235.49 C228.00,236.15 228.95,237.55 230.11,238.60 C233.46,241.62 236.16,245.85 238.61,251.89 L 240.89 257.50 ZM 321.36 289.57 C326.72,291.25 327.58,291.26 333.66,289.68 C347.79,286.01 355.93,270.06 350.10,257.50 C347.78,252.52 341.69,246.59 336.78,244.55 C324.82,239.56 308.31,247.01 305.02,258.88 C301.40,271.89 308.71,285.61 321.36,289.57 ZM 194.22 287.69 C202.04,290.54 212.08,288.72 217.97,283.40 C234.13,268.81 224.57,243.00 203.01,243.00 C196.10,243.00 190.78,244.89 186.66,248.80 C176.98,257.99 176.89,272.75 186.46,282.11 C188.93,284.53 192.42,287.04 194.22,287.69 Z" fill="rgb(126,191,102)"/>
<path d="M 0.00 237.00 L 0.00 0.00 L 263.00 0.00 L 526.00 0.00 L 526.00 237.00 L 526.00 474.00 L 263.00 474.00 L 0.00 474.00 L 0.00 237.00 Z" fill="none"/>
<path d="M 264.32 434.09 C269.87,433.18 272.25,431.24 272.25,427.65 C272.25,424.77 272.22,424.73 258.05,407.33 C252.31,400.27 242.89,388.65 237.13,381.50 C217.63,357.32 217.17,356.87 208.38,353.28 C199.47,349.63 184.65,341.37 178.57,336.65 C170.09,330.08 154.82,313.79 149.63,305.79 C140.90,292.33 134.08,274.84 130.95,257.86 C130.31,254.36 129.48,244.14 129.12,235.15 C128.39,217.14 127.95,216.00 121.68,216.00 C119.27,216.00 116.45,218.22 106.12,228.27 C99.18,235.02 83.82,249.91 72.00,261.36 C60.17,272.82 49.95,283.16 49.29,284.35 C47.18,288.08 47.77,291.92 50.92,295.08 C54.33,298.48 58.64,298.92 63.06,296.30 C64.65,295.37 66.10,294.81 66.31,295.05 C66.51,295.30 68.81,300.67 71.42,307.00 C83.55,336.39 98.88,358.56 121.98,380.09 C132.06,389.49 134.23,391.25 145.50,399.15 C154.30,405.32 172.18,414.83 183.00,419.10 C201.86,426.55 214.92,429.99 233.50,432.41 C254.08,435.09 257.19,435.26 264.32,434.09 ZM 330.64 423.43 C370.97,409.94 414.23,376.52 437.65,340.75 C442.53,333.29 452.63,314.76 455.22,308.50 C466.46,281.30 472.65,255.59 473.61,232.06 C474.12,219.54 474.00,218.25 472.09,215.25 C468.97,210.33 464.49,210.86 457.59,216.98 C455.89,218.49 449.77,223.78 444.00,228.74 C438.23,233.70 426.34,244.00 417.60,251.63 L 401.70 265.50 L 397.04 277.00 C381.56,315.18 352.02,343.12 312.94,356.57 C301.10,360.64 291.55,362.65 277.53,364.02 C266.38,365.11 263.67,366.65 263.67,371.88 C263.67,374.35 266.10,377.48 277.53,389.69 C285.15,397.83 296.35,409.56 302.43,415.75 C315.42,428.98 314.66,428.78 330.64,423.43 ZM 332.86 304.95 C351.62,301.91 365.95,286.26 366.84,267.85 C367.70,249.92 357.91,235.48 341.09,229.87 C335.65,228.05 333.17,227.81 324.88,228.27 L 315.08 228.81 L 306.73 216.15 C302.14,209.19 297.53,202.05 296.49,200.28 L 294.61 197.07 L 297.58 193.28 C304.90,183.98 307.52,176.20 306.74,166.07 C305.48,149.70 295.83,136.78 280.50,130.97 C272.06,127.77 258.70,127.71 251.14,130.84 C242.83,134.28 237.55,138.43 233.20,144.94 C227.27,153.81 225.63,160.05 226.22,171.39 C226.67,180.03 227.04,181.39 230.82,188.41 L 234.94 196.04 L 225.37 210.27 C220.10,218.10 215.15,225.18 214.36,226.00 C213.29,227.12 210.45,227.52 203.21,227.59 C187.12,227.75 176.94,233.41 169.00,246.60 C165.54,252.36 165.50,252.55 165.50,263.96 C165.50,274.81 165.69,275.89 168.61,282.00 C172.62,290.40 178.88,296.65 187.54,300.91 C193.86,304.02 195.26,304.32 203.18,304.28 C210.68,304.25 212.76,303.83 218.19,301.29 C226.14,297.57 233.46,290.33 237.15,282.52 C238.72,279.21 240.00,275.94 240.00,275.25 C240.00,274.28 245.57,274.00 264.53,274.00 C287.00,274.00 289.11,274.15 289.66,275.75 C294.91,291.27 306.83,302.67 320.11,304.87 C323.08,305.36 325.73,305.82 326.00,305.88 C326.27,305.94 329.36,305.52 332.86,304.95 ZM 71.50 216.73 C73.70,215.63 79.78,212.17 85.00,209.05 C90.22,205.94 99.90,200.44 106.50,196.85 C113.10,193.25 122.81,187.96 128.08,185.09 C136.66,180.42 137.90,179.38 139.93,175.19 C154.05,145.93 178.74,121.18 207.50,107.44 C228.14,97.58 244.36,93.08 266.96,90.94 C279.10,89.78 281.34,89.10 282.98,86.04 C284.54,83.13 282.63,79.33 276.18,72.52 C273.05,69.21 263.74,59.30 255.49,50.51 C229.55,22.83 231.60,24.65 227.17,25.36 C215.93,27.15 191.97,35.54 176.05,43.26 C140.57,60.45 108.93,88.86 89.09,121.34 C74.09,145.89 65.27,167.70 59.04,195.62 C55.78,210.21 56.45,217.04 61.32,218.98 C63.84,219.99 65.94,219.53 71.50,216.73 ZM 420.50 208.00 C423.80,205.25 438.99,190.51 454.26,175.25 C484.93,144.58 484.53,145.18 479.49,137.78 C476.11,132.80 472.02,132.05 463.63,134.88 C460.18,136.05 457.09,137.00 456.77,137.00 C456.45,137.00 454.06,133.06 451.47,128.25 C447.11,120.14 436.59,104.12 432.14,98.79 C418.66,82.64 407.17,71.22 395.71,62.57 C365.68,39.89 331.47,25.73 294.22,20.57 C278.07,18.33 274.44,18.47 271.45,21.45 C270.10,22.80 269.00,24.56 269.00,25.35 C269.00,27.64 274.16,34.29 296.03,60.19 C307.32,73.56 318.79,87.36 321.51,90.85 C324.75,95.01 329.39,99.21 334.98,103.04 C348.41,112.25 364.02,125.17 370.13,132.12 C382.41,146.11 393.77,164.96 398.39,179.00 C400.59,185.66 405.00,203.57 405.00,205.80 C405.00,206.86 405.93,208.92 407.07,210.37 C410.24,214.39 413.53,213.81 420.50,208.00 ZM 231.50 414.37 C218.22,412.53 189.62,405.31 186.50,402.99 C185.95,402.59 181.00,399.97 175.50,397.17 C131.05,374.59 97.10,334.49 81.48,286.13 L 78.77 277.76 L 95.63 261.47 C104.91,252.52 112.83,245.40 113.25,245.65 C113.66,245.91 114.00,247.92 114.00,250.12 C114.00,261.18 121.11,286.33 128.35,300.92 C138.06,320.45 148.52,333.25 168.09,349.50 C173.55,354.04 183.21,359.87 195.43,366.00 C206.47,371.53 209.00,373.26 212.45,377.58 C240.25,412.45 241.26,413.78 240.82,414.83 C240.65,415.26 236.45,415.05 231.50,414.37 ZM 306.68 395.11 C299.15,387.46 293.00,380.77 293.00,380.22 C293.00,379.67 294.24,379.02 295.75,378.76 C308.09,376.64 328.59,369.03 342.61,361.36 C371.43,345.60 392.89,322.83 408.60,291.33 L 416.71 275.09 L 427.62 265.29 C441.32,252.98 444.41,250.21 450.00,245.13 C452.48,242.89 454.84,241.04 455.25,241.03 C456.62,240.98 456.03,246.83 453.43,259.14 C438.89,328.00 394.71,380.77 330.79,405.61 C326.00,407.48 321.69,409.00 321.21,409.00 C320.74,409.00 314.20,402.75 306.68,395.11 ZM 321.36 289.57 C308.71,285.61 301.40,271.89 305.02,258.88 C308.31,247.01 324.82,239.56 336.78,244.55 C341.69,246.59 347.78,252.52 350.10,257.50 C355.93,270.06 347.79,286.01 333.66,289.68 C327.58,291.26 326.72,291.25 321.36,289.57 ZM 194.22 287.69 C192.42,287.04 188.93,284.53 186.46,282.11 C176.89,272.75 176.98,257.99 186.66,248.80 C190.78,244.89 196.10,243.00 203.01,243.00 C224.57,243.00 234.13,268.81 217.97,283.40 C212.08,288.72 202.04,290.54 194.22,287.69 ZM 251.70 258.05 L 240.89 257.50 L 238.61 251.89 C236.16,245.85 233.46,241.62 230.11,238.60 C228.95,237.55 228.00,236.15 228.00,235.49 C228.00,234.84 230.36,230.96 233.25,226.88 C236.14,222.80 240.71,216.21 243.41,212.23 L 248.33 205.00 L 252.99 205.00 C258.97,205.00 262.31,201.93 261.82,196.86 C261.53,193.83 260.81,193.13 254.35,189.65 C248.45,186.46 246.75,184.96 244.60,181.00 C239.40,171.46 240.50,160.44 247.47,152.31 C252.35,146.60 258.11,144.00 265.86,144.00 C273.27,144.00 277.99,146.10 283.76,151.99 C294.37,162.82 292.62,179.53 279.93,188.65 C274.71,192.39 273.82,194.91 276.16,199.32 C276.79,200.52 282.42,209.24 288.66,218.69 C294.90,228.15 300.00,236.16 300.00,236.50 C300.00,236.84 298.45,239.15 296.56,241.63 C294.66,244.11 292.35,248.47 291.43,251.32 C290.50,254.17 289.29,257.06 288.75,257.75 C287.71,259.06 273.69,259.18 251.70,258.05 ZM 78.00 190.68 C78.00,188.45 82.56,174.02 86.43,164.00 C102.70,121.90 136.55,83.91 178.00,61.25 C187.75,55.92 209.00,47.45 218.14,45.26 L 225.33 43.53 L 240.15 58.99 C248.29,67.49 254.62,74.78 254.19,75.21 C253.77,75.63 249.62,76.64 244.96,77.45 C222.00,81.47 195.84,92.56 176.57,106.43 C166.19,113.90 149.61,129.72 142.61,138.84 C139.94,142.33 134.84,150.18 131.29,156.29 C127.73,162.41 124.08,167.97 123.16,168.67 C121.31,170.07 79.36,192.00 78.53,192.00 C78.24,192.00 78.00,191.40 78.00,190.68 ZM 418.00 182.44 C418.00,179.81 409.09,158.96 404.42,150.64 C401.99,146.32 400.00,142.59 400.00,142.35 C400.00,142.11 398.12,139.35 395.82,136.21 C383.64,119.60 372.13,108.57 353.00,95.17 C342.13,87.55 339.33,84.97 331.50,75.35 C326.55,69.26 317.88,58.62 312.24,51.70 C306.60,44.79 302.33,38.92 302.74,38.68 C303.43,38.26 316.26,41.43 323.50,43.81 C375.14,60.73 416.82,96.92 441.72,146.46 L 447.23 157.42 L 433.36 170.66 C425.74,177.95 419.16,183.93 418.75,183.95 C418.34,183.98 418.00,183.30 418.00,182.44 Z" fill="rgb(253,254,254)"/>
</g>
</svg>